<svg xmlns="http://www.w3.org/2000/svg" width="44" height="44" viewBox="0 0 44 44">
  <title>Dictate idle</title>
  <rect width="44" height="44" fill="none"/>
  <path fill="#000000" fill-rule="evenodd" d="M22 5.5c9.113 0 16.5 7.387 16.5 16.5S31.113 38.5 22 38.5 5.5 31.113 5.5 22 12.887 5.5 22 5.5Zm0 4C15.096 9.5 9.5 15.096 9.5 22S15.096 34.5 22 34.5 34.5 28.904 34.5 22 28.904 9.5 22 9.5Zm0 5.25c1.105 0 2 .895 2 2v10.5a2 2 0 1 1-4 0v-10.5c0-1.105.895-2 2-2Zm-7.25 5.75c.966 0 1.75.784 1.75 1.75v3.5a1.75 1.75 0 1 1-3.5 0v-3.5c0-.966.784-1.75 1.75-1.75Zm14.5 0c.966 0 1.75.784 1.75 1.75v3.5a1.75 1.75 0 1 1-3.5 0v-3.5c0-.966.784-1.75 1.75-1.75Z"/>
</svg>
